<?xml version="1.0" standalone="no"?>
<!DOCTYPE svg PUBLIC "-//W3C//DTD SVG 20010904//EN"
 "http://www.w3.org/TR/2001/REC-SVG-20010904/DTD/svg10.dtd">
<svg version="1.0" xmlns="http://www.w3.org/2000/svg"
 width="143.000000pt" height="40.000000pt" viewBox="0 0 143.000000 40.000000"
 preserveAspectRatio="xMidYMid meet">

<g transform="translate(0.000000,40.000000) scale(0.100000,-0.100000)"
fill="#000000" stroke="none">
<path d="M120 200 l0 -130 26 -6 c39 -10 124 3 145 22 27 24 26 88 -1 107 -18
13 -19 16 -5 27 8 7 15 27 15 46 0 48 -29 64 -112 64 l-68 0 0 -130z m115 55
c0 -13 -8 -21 -22 -23 -19 -3 -23 1 -23 23 0 22 4 26 23 23 14 -2 22 -10 22
-23z m-4 -85 c23 -13 24 -24 3 -44 -27 -27 -44 -20 -44 19 0 37 9 42 41 25z"/>
<path d="M420 325 c0 -3 18 -39 40 -79 32 -58 40 -83 40 -124 l0 -52 35 0 c35
0 35 1 35 43 0 32 12 66 45 130 l46 87 -40 0 c-37 0 -40 -2 -58 -45 -10 -25
-21 -45 -24 -45 -4 0 -14 20 -23 45 -17 43 -20 45 -57 45 -21 0 -39 -2 -39 -5z"/>
<path d="M780 200 l0 -130 30 0 c29 0 29 0 32 67 l3 68 35 -65 c33 -61 38 -65
73 -68 l37 -3 0 130 0 131 -35 0 -34 0 -3 -67 -3 -68 -35 67 c-32 63 -38 68
-67 68 l-33 0 0 -130z"/>
<path d="M1120 306 c0 -21 6 -25 33 -28 l32 -3 3 -102 3 -103 34 0 35 0 0 105
0 105 35 0 c31 0 35 3 35 25 l0 25 -105 0 c-105 0 -105 0 -105 -24z"/>
</g>
</svg>
